{
  "accessors": [
    {
      "bufferView": 2,
      "componentType": 5126,
      "count": 65532,
      "max": [
        2.0705394744873047,
        4.000000476837158,
        0.5524000525474548
      ],
      "min": [
        -2.070558547973633,
        -2.4146411092829112e-08,
        -0.5524056553840637
      ],
      "type": "VEC3"
    },
    {
      "bufferView": 2,
      "byteOffset": 786384,
      "componentType": 5126,
      "count": 65532,
      "max": [
        1.0,
        1.0,
        1.0
      ],
      "min": [
        -1.0,
        -1.0,
        -1.0
      ],
      "type": "VEC3"
    },
    {
      "bufferView": 1,
      "componentType": 5126,
      "count": 65532,
      "max": [
        0.7762027382850647,
        1.3060355186462402
      ],
      "min": [
        0.22380006313323975,
        -0.3051983118057251
      ],
      "type": "VEC2"
    },
    {
      "bufferView": 0,
      "componentType": 5125,
      "count": 137589,
      "type": "SCALAR"
    },
    {
      "bufferView": 2,
      "byteOffset": 1572768,
      "componentType": 5126,
      "count": 65532,
      "max": [
        2.0705394744873047,
        4.000000476837158,
        0.5524000525474548
      ],
      "min": [
        -2.0705652236938477,
        -2.4146411092829112e-08,
        -0.5524056553840637
      ],
      "type": "VEC3"
    },
    {
      "bufferView": 2,
      "byteOffset": 2359152,
      "componentType": 5126,
      "count": 65532,
      "max": [
        1.0,
        1.0,
        1.0
      ],
      "min": [
        -1.0,
        -1.0,
        -1.0
      ],
      "type": "VEC3"
    },
    {
      "bufferView": 1,
      "byteOffset": 524256,
      "componentType": 5126,
      "count": 65532,
      "max": [
        0.7762027382850647,
        1.3060355186462402
      ],
      "min": [
        0.22379997372627258,
        -0.3051983118057251
      ],
      "type": "VEC2"
    },
    {
      "bufferView": 0,
      "byteOffset": 550356,
      "componentType": 5125,
      "count": 95664,
      "type": "SCALAR"
    },
    {
      "bufferView": 2,
      "byteOffset": 3145536,
      "componentType": 5126,
      "count": 27704,
      "max": [
        -2.000009536743164,
        4.000000476837158,
        0.5523999929428101
      ],
      "min": [
        -2.0705652236938477,
        1.4000003337860107,
        -0.5524054765701294
      ],
      "type": "VEC3"
    },
    {
      "bufferView": 2,
      "byteOffset": 3477984,
      "componentType": 5126,
      "count": 27704,
      "max": [
        1.0,
        1.0,
        1.0
      ],
      "min": [
        -1.0,
        -1.0,
        -1.0
      ],
      "type": "VEC3"
    },
    {
      "bufferView": 1,
      "byteOffset": 1048512,
      "componentType": 5126,
      "count": 27704,
      "max": [
        0.7762026786804199,
        1.0
      ],
      "min": [
        0.22379997372627258,
        -0.04999995231628418
      ],
      "type": "VEC2"
    },
    {
      "bufferView": 0,
      "byteOffset": 933012,
      "componentType": 5125,
      "count": 44625,
      "type": "SCALAR"
    },
    {
      "bufferView": 2,
      "byteOffset": 3810432,
      "componentType": 5126,
      "count": 3291,
      "max": [
        2.0637004375457764,
        3.6753695011138916,
        0.5583901405334473
      ],
      "min": [
        -2.063730239868164,
        1.1281559467315674,
        -0.5583943724632263
      ],
      "type": "VEC3"
    },
    {
      "bufferView": 2,
      "byteOffset": 3849924,
      "componentType": 5126,
      "count": 3291,
      "max": [
        1.0,
        1.0,
        1.0
      ],
      "min": [
        -1.0,
        -1.0,
        -1.0
      ],
      "type": "VEC3"
    },
    {
      "bufferView": 1,
      "byteOffset": 1270144,
      "componentType": 5126,
      "count": 3291,
      "max": [
        1.4325692653656006,
        0.779197096824646
      ],
      "min": [
        -0.5674312114715576,
        0.06407797336578369
      ],
      "type": "VEC2"
    },
    {
      "bufferView": 0,
      "byteOffset": 1111512,
      "componentType": 5125,
      "count": 5328,
      "type": "SCALAR"
    }
  ],
  "asset": {
    "extras": {
      "author": "jkvarel (https://sketchfab.com/jkvarel1701)",
      "license": "CC-BY-4.0 (http://creativecommons.org/licenses/by/4.0/)",
      "source": "https://sketchfab.com/3d-models/warehouse-shelfrack-7975e1af80c24de0abeca2c7f01c72d7",
      "title": "Warehouse Shelf/Rack"
    },
    "generator": "Sketchfab-12.68.0",
    "version": "2.0"
  },
  "bufferViews": [
    {
      "buffer": 0,
      "byteLength": 1132824,
      "name": "floatBufferViews",
      "target": 34963
    },
    {
      "buffer": 0,
      "byteLength": 1296472,
      "byteOffset": 1132824,
      "byteStride": 8,
      "name": "floatBufferViews",
      "target": 34962
    },
    {
      "buffer": 0,
      "byteLength": 3889416,
      "byteOffset": 2429296,
      "byteStride": 12,
      "name": "floatBufferViews",
      "target": 34962
    }
  ],
  "buffers": [
    {
      "byteLength": 6318712,
      "uri": "scene.bin"
    }
  ],
  "materials": [
    {
      "doubleSided": true,
      "name": "Regal1_2",
      "pbrMetallicRoughness": {
        "baseColorFactor": [
          0.0842861,
          0.107724,
          0.184467,
          1.0
        ],
        "metallicFactor": 0.0,
        "roughnessFactor": 0.9757874205637806
      }
    },
    {
      "doubleSided": true,
      "name": "Regal1_1",
      "pbrMetallicRoughness": {
        "baseColorFactor": [
          0.8,
          0.145098,
          0.106039,
          1.0
        ],
        "metallicFactor": 0.0,
        "roughnessFactor": 0.9370524267972469
      }
    }
  ],
  "meshes": [
    {
      "name": "WarehouseShelf01_Regal1_2_0",
      "primitives": [
        {
          "attributes": {
            "NORMAL": 1,
            "POSITION": 0,
            "TEXCOORD_0": 2
          },
          "indices": 3,
          "material": 0,
          "mode": 4
        }
      ]
    },
    {
      "name": "WarehouseShelf01_Regal1_2_0",
      "primitives": [
        {
          "attributes": {
            "NORMAL": 5,
            "POSITION": 4,
            "TEXCOORD_0": 6
          },
          "indices": 7,
          "material": 0,
          "mode": 4
        }
      ]
    },
    {
      "name": "WarehouseShelf01_Regal1_2_0",
      "primitives": [
        {
          "attributes": {
            "NORMAL": 9,
            "POSITION": 8,
            "TEXCOORD_0": 10
          },
          "indices": 11,
          "material": 0,
          "mode": 4
        }
      ]
    },
    {
      "name": "WarehouseShelf01_Regal1_1_0",
      "primitives": [
        {
          "attributes": {
            "NORMAL": 13,
            "POSITION": 12,
            "TEXCOORD_0": 14
          },
          "indices": 15,
          "material": 1,
          "mode": 4
        }
      ]
    }
  ],
  "nodes": [
    {
      "children": [
        1
      ],
      "matrix": [
        1.0,
        0.0,
        0.0,
        0.0,
        0.0,
        2.220446049250313e-16,
        -1.0,
        0.0,
        0.0,
        1.0,
        2.220446049250313e-16,
        0.0,
        0.0,
        0.0,
        0.0,
        1.0
      ],
      "name": "Sketchfab_model"
    },
    {
      "children": [
        2
      ],
      "matrix": [
        1.0,
        0.0,
        0.0,
        0.0,
        0.0,
        0.0,
        1.0,
        0.0,
        0.0,
        -1.0,
        0.0,
        0.0,
        0.0,
        0.0,
        0.0,
        1.0
      ],
      "name": "shelf.fbx"
    },
    {
      "children": [
        3
      ],
      "name": "RootNode"
    },
    {
      "children": [
        4,
        5,
        6,
        7
      ],
      "matrix": [
        100.0,
        0.0,
        0.0,
        0.0,
        0.0,
        99.9999999999999,
        4.371138828673792e-06,
        0.0,
        0.0,
        -4.371138828673792e-06,
        99.9999999999999,
        0.0,
        0.0,
        0.0,
        0.0,
        1.0
      ],
      "name": "WarehouseShelf01"
    },
    {
      "mesh": 0,
      "name": "WarehouseShelf01_Regal1_2_0"
    },
    {
      "mesh": 1,
      "name": "WarehouseShelf01_Regal1_2_0"
    },
    {
      "mesh": 2,
      "name": "WarehouseShelf01_Regal1_2_0"
    },
    {
      "mesh": 3,
      "name": "WarehouseShelf01_Regal1_1_0"
    }
  ],
  "scene": 0,
  "scenes": [
    {
      "name": "Sketchfab_Scene",
      "nodes": [
        0
      ]
    }
  ]
}
