{
	"asset": {
		"version": "2.0",
		"generator": "GLTFExporter"
	},
	"scenes": [
		{
			"name": "scene",
			"nodes": [
				0,
				23,
				34,
				38,
				41,
				44,
				45
			]
		}
	],
	"scene": 0,
	"nodes": [
		{
			"name": "script"
		},
		{
			"matrix": [
				21.090045395589904,
				0,
				0,
				0,
				0,
				10.253558370823644,
				0,
				0,
				0,
				0,
				1,
				0,
				0,
				0,
				0,
				1
			],
			"name": "cube",
			"mesh": 0
		},
		{
			"matrix": [
				0.9481126826425489,
				-0.11330145389599555,
				-0.29706080447848215,
				0,
				0,
				0.9343459493506673,
				-0.3563672921748014,
				0,
				0.31793449169970445,
				0.337876349389912,
				0.8858652445550602,
				0,
				-11.40056898297495,
				4.058265909856564,
				-28.408002189348444,
				1
			],
			"name": "wall",
			"children": [
				1
			]
		},
		{
			"matrix": [
				21.090045395589904,
				0,
				0,
				0,
				0,
				10.253558370823644,
				0,
				0,
				0,
				0,
				1,
				0,
				0,
				0,
				0,
				1
			],
			"name": "cube",
			"mesh": 0
		},
		{
			"matrix": [
				0.517682876556743,
				-0.7580523725048685,
				0.3966875847057426,
				0,
				0.40056974858753114,
				-0.19494849698217437,
				-0.8952870824718265,
				0,
				0.7560081453506032,
				0.6223758382714832,
				0.20273134957231106,
				0,
				4.646493592947635,
				3.8033370507065367,
				24.345064245932647,
				1
			],
			"name": "wall",
			"children": [
				3
			]
		},
		{
			"matrix": [
				21.090045395589904,
				0,
				0,
				0,
				0,
				10.253558370823644,
				0,
				0,
				0,
				0,
				1,
				0,
				0,
				0,
				0,
				1
			],
			"name": "cube",
			"mesh": 0
		},
		{
			"matrix": [
				0.23470782569176185,
				-0.1467967183259747,
				0.9609177696596989,
				0,
				0.5302699124104971,
				0.8478288860331215,
				2.220446049250313e-16,
				0,
				-0.8146938422200143,
				0.5095457815511387,
				0.27683395736836547,
				0,
				39.4585667072219,
				4.035984393594352,
				31.03406781503036,
				1
			],
			"name": "wall",
			"children": [
				5
			]
		},
		{
			"matrix": [
				21.090045395589904,
				0,
				0,
				0,
				0,
				10.253558370823644,
				0,
				0,
				0,
				0,
				1,
				0,
				0,
				0,
				0,
				1
			],
			"name": "cube",
			"mesh": 0
		},
		{
			"matrix": [
				0.6316206147041266,
				-0.35357061159266906,
				0.6899588550767127,
				0,
				0.4884593511274297,
				0.8725866503082488,
				0,
				0,
				-0.6020488862019033,
				0.33701685465539544,
				0.7238485879665945,
				0,
				22.508403983880832,
				3.7854195446856407,
				-6.889018875918323,
				1
			],
			"name": "wall",
			"children": [
				7
			]
		},
		{
			"matrix": [
				21.090045395589904,
				0,
				0,
				0,
				0,
				10.253558370823644,
				0,
				0,
				0,
				0,
				1,
				0,
				0,
				0,
				0,
				1
			],
			"name": "cube",
			"mesh": 0
		},
		{
			"matrix": [
				0.2898941835527064,
				0.06869922427699288,
				0.9545898485349872,
				0,
				0.03611677133657104,
				0.9959246283318082,
				-0.08264208074807672,
				0,
				-0.9563769869515534,
				0.05843416180531064,
				0.2862315628360701,
				0,
				-34.260646245516924,
				4.20658601743037,
				-7.032777448139527,
				1
			],
			"name": "wall",
			"children": [
				9
			]
		},
		{
			"matrix": [
				21.090045395589904,
				0,
				0,
				0,
				0,
				10.253558370823644,
				0,
				0,
				0,
				0,
				1,
				0,
				0,
				0,
				0,
				1
			],
			"name": "cube",
			"mesh": 0
		},
		{
			"matrix": [
				0.6183469164395465,
				0,
				0.7859052684196138,
				0,
				0,
				1,
				0,
				0,
				-0.7859052684196138,
				0,
				0.6183469164395465,
				0,
				38.041935648957576,
				4.472161601466366,
				-36.3762406039472,
				1
			],
			"name": "wall",
			"children": [
				11
			]
		},
		{
			"matrix": [
				21.090045395589904,
				0,
				0,
				0,
				0,
				10.253558370823644,
				0,
				0,
				0,
				0,
				1,
				0,
				0,
				0,
				0,
				1
			],
			"name": "cube",
			"mesh": 0
		},
		{
			"matrix": [
				-0.026273700876095568,
				-0.023442019476562187,
				0.9993798899143066,
				0,
				-0.6657527440848716,
				0.7461724222614123,
				-1.1102230246251565e-16,
				0,
				-0.7457097132167025,
				-0.6653399040936872,
				-0.03521129981790038,
				0,
				-37.78356964580225,
				2.2822942630014467,
				29.63583162790468,
				1
			],
			"name": "wall",
			"children": [
				13
			]
		},
		{
			"matrix": [
				21.090045395589904,
				0,
				0,
				0,
				0,
				10.253558370823644,
				0,
				0,
				0,
				0,
				1,
				0,
				0,
				0,
				0,
				1
			],
			"name": "cube",
			"mesh": 0
		},
		{
			"matrix": [
				0.8643017904384848,
				0.28862013407643683,
				0.41192333419039123,
				0,
				-0.4715038664816023,
				0.7500694494780469,
				0.46376710195161447,
				0,
				-0.17511858535783278,
				-0.5950581813280104,
				0.7843718772985628,
				0,
				-16.178342355586302,
				3.8033370507065367,
				40.75590230912267,
				1
			],
			"name": "wall",
			"children": [
				15
			]
		},
		{
			"matrix": [
				21.090045395589904,
				0,
				0,
				0,
				0,
				10.253558370823644,
				0,
				0,
				0,
				0,
				1,
				0,
				0,
				0,
				0,
				1
			],
			"name": "cube",
			"mesh": 0
		},
		{
			"matrix": [
				-0.3301671385664912,
				-0.937874948046239,
				-0.10667821913624104,
				0,
				0.893766300565885,
				-0.2742707427504636,
				-0.35490471910624577,
				0,
				0.30359753059534134,
				-0.2125232728394081,
				0.928796209035134,
				0,
				15.150632322897138,
				4.035984393594352,
				39.45608749730778,
				1
			],
			"name": "wall",
			"children": [
				17
			]
		},
		{
			"matrix": [
				21.090045395589904,
				0,
				0,
				0,
				0,
				10.253558370823644,
				0,
				0,
				0,
				0,
				1,
				0,
				0,
				0,
				0,
				1
			],
			"name": "cube",
			"mesh": 0
		},
		{
			"matrix": [
				1,
				0,
				0,
				0,
				0,
				1.0000000000000004,
				0,
				0,
				0,
				0,
				1,
				0,
				-10.24430169681681,
				4.035984393594352,
				4.2442015227870895,
				1
			],
			"name": "wall",
			"children": [
				19
			]
		},
		{
			"matrix": [
				21.090045395589904,
				0,
				0,
				0,
				0,
				10.253558370823644,
				0,
				0,
				0,
				0,
				1,
				0,
				0,
				0,
				0,
				1
			],
			"name": "cube",
			"mesh": 0
		},
		{
			"matrix": [
				0.0007963267107332639,
				0,
				-0.9999996829318347,
				0,
				0,
				1.0000000000000004,
				0,
				0,
				0.9999996829318347,
				0,
				0.0007963267107332639,
				0,
				-20.861925915827012,
				4.035984393594352,
				4.155042613502804,
				1
			],
			"name": "wall",
			"children": [
				21
			]
		},
		{
			"name": "walls",
			"children": [
				2,
				4,
				6,
				8,
				10,
				12,
				14,
				16,
				18,
				20,
				22
			]
		},
		{
			"matrix": [
				100,
				0,
				0,
				0,
				0,
				5,
				0,
				0,
				0,
				0,
				100,
				0,
				0,
				0,
				0,
				1
			],
			"name": "cube",
			"mesh": 1
		},
		{
			"matrix": [
				6.341356046936947e-7,
				0.9999996829323027,
				-0.0007963264577760785,
				0,
				-0.0007963264577758563,
				0.0007963267101084555,
				0.9999993658642381,
				0,
				0.9999996829323025,
				4.676814491234924e-13,
				0.0007963267101082335,
				0,
				1.1099831395599438,
				-20.62896312863841,
				-47.27141001793625,
				1
			],
			"name": "floor",
			"children": [
				24
			]
		},
		{
			"matrix": [
				100,
				0,
				0,
				0,
				0,
				5,
				0,
				0,
				0,
				0,
				100,
				0,
				0,
				0,
				0,
				1
			],
			"name": "cube",
			"mesh": 2
		},
		{
			"matrix": [
				1,
				0,
				0,
				0,
				0,
				1,
				0,
				0,
				0,
				0,
				1,
				0,
				0,
				-2.5,
				0,
				1
			],
			"name": "floor",
			"children": [
				26
			]
		},
		{
			"matrix": [
				100,
				0,
				0,
				0,
				0,
				5,
				0,
				0,
				0,
				0,
				100,
				0,
				0,
				0,
				0,
				1
			],
			"name": "cube",
			"mesh": 1
		},
		{
			"matrix": [
				6.341358143037352e-7,
				0.9999996829321456,
				-0.0007963264579331471,
				0,
				-0.0007963264579329251,
				0.0007963267103178713,
				0.9999993658640809,
				0,
				0.9999996829321454,
				3.105848911389514e-13,
				0.0007963267103176491,
				0,
				1.1099831395599438,
				-20.880042038132046,
				49.83942063765288,
				1
			],
			"name": "floor",
			"children": [
				28
			]
		},
		{
			"matrix": [
				100,
				0,
				0,
				0,
				0,
				5,
				0,
				0,
				0,
				0,
				100,
				0,
				0,
				0,
				0,
				1
			],
			"name": "cube",
			"mesh": 1
		},
		{
			"matrix": [
				0.0007963267107332639,
				0.9999996829318347,
				0,
				0,
				-0.9999996829318347,
				0.0007963267107332639,
				0,
				0,
				0,
				0,
				1,
				0,
				51.3454384080614,
				-20.779790786846576,
				0,
				1
			],
			"name": "floor",
			"children": [
				30
			]
		},
		{
			"matrix": [
				100,
				0,
				0,
				0,
				0,
				5,
				0,
				0,
				0,
				0,
				100,
				0,
				0,
				0,
				0,
				1
			],
			"name": "cube",
			"mesh": 1
		},
		{
			"matrix": [
				0.0007963267107332639,
				0.9999996829318347,
				0,
				0,
				-0.9999996829318347,
				0.0007963267107332639,
				0,
				0,
				0,
				0,
				1,
				0,
				-50.82089113668063,
				-19.793356183008292,
				0,
				1
			],
			"name": "floor",
			"children": [
				32
			]
		},
		{
			"name": "floor",
			"children": [
				25,
				27,
				29,
				31,
				33
			]
		},
		{
			"matrix": [
				0.5530656352877685,
				0,
				0,
				0,
				0,
				0.8751337638330919,
				0,
				0,
				0,
				0,
				0.6248387790137047,
				0,
				0.008166303939246333,
				0.4767366284990766,
				0.03398071183148943,
				1
			],
			"name": "cylinder",
			"mesh": 3
		},
		{
			"matrix": [
				0.3958375538542531,
				0.07497452854904924,
				0.3038097233076997,
				0,
				0.28618751776354634,
				0.11140113820172944,
				-0.40036906477957435,
				0,
				-0.12656315650217112,
				0.48639233487482,
				0.044868262056825495,
				0,
				0.335677216781864,
				-0.2704555531753279,
				-0.8198026612093088,
				1
			],
			"name": "gun",
			"mesh": 4
		},
		{
			"matrix": [
				1,
				0,
				0,
				0,
				0,
				1,
				0,
				0,
				0,
				0,
				1,
				0,
				0,
				0.9294818321001301,
				-0.2932024598121643,
				1
			],
			"name": "camera",
			"camera": 0,
			"children": [
				36
			]
		},
		{
			"matrix": [
				1,
				0,
				0,
				0,
				0,
				1,
				0,
				0,
				0,
				0,
				1,
				0,
				-8.748056329055252,
				6.148639722796164,
				24.825596466165784,
				1
			],
			"name": "player",
			"children": [
				35,
				37
			]
		},
		{
			"name": "point",
			"extensions": {
				"KHR_lights_punctual": {
					"light": 0
				}
			}
		},
		{
			"matrix": [
				0.03,
				0,
				0,
				0,
				0,
				0.03,
				0,
				0,
				0,
				0,
				0.03,
				0,
				0,
				0,
				0,
				1
			],
			"name": "companion",
			"mesh": 5,
			"children": [
				39
			]
		},
		{
			"matrix": [
				0.9388402073892413,
				0.21972697202604857,
				-0.26513981736734743,
				0,
				0.1637824702508031,
				0.39237124437407045,
				0.9051077886234812,
				0,
				0.3029098338249702,
				-0.8931768382311577,
				0.3323864741825717,
				0,
				-17.559872313687666,
				3.2296641509761836,
				27.717956633663405,
				1
			],
			"name": "companion",
			"children": [
				40
			]
		},
		{
			"name": "point",
			"extensions": {
				"KHR_lights_punctual": {
					"light": 1
				}
			}
		},
		{
			"matrix": [
				0.03,
				0,
				0,
				0,
				0,
				0.03,
				0,
				0,
				0,
				0,
				0.03,
				0,
				0,
				0,
				0,
				1
			],
			"name": "companion",
			"mesh": 5,
			"children": [
				42
			]
		},
		{
			"matrix": [
				0.9388402073892413,
				0.21972697202604857,
				-0.26513981736734743,
				0,
				0.1637824702508031,
				0.39237124437407045,
				0.9051077886234812,
				0,
				0.3029098338249702,
				-0.8931768382311577,
				0.3323864741825717,
				0,
				-3.787924950694329,
				3.2296641509761836,
				-20.251886014804782,
				1
			],
			"name": "companion",
			"children": [
				43
			]
		},
		{
			"matrix": [
				1,
				0,
				0,
				0,
				0,
				1,
				0,
				0,
				0,
				0,
				1,
				0,
				0,
				69.94833497345226,
				37.44668130084878,
				1
			],
			"name": "directional",
			"extensions": {
				"KHR_lights_punctual": {
					"light": 2
				}
			}
		}
	],
	"bufferViews": [
		{
			"buffer": 0,
			"byteOffset": 0,
			"byteLength": 288,
			"target": 34962,
			"byteStride": 12
		},
		{
			"buffer": 0,
			"byteOffset": 288,
			"byteLength": 288,
			"target": 34962,
			"byteStride": 12
		},
		{
			"buffer": 0,
			"byteOffset": 576,
			"byteLength": 192,
			"target": 34962,
			"byteStride": 8
		},
		{
			"buffer": 0,
			"byteOffset": 768,
			"byteLength": 72,
			"target": 34963
		},
		{
			"buffer": 0,
			"byteOffset": 840,
			"byteLength": 288,
			"target": 34962,
			"byteStride": 12
		},
		{
			"buffer": 0,
			"byteOffset": 1128,
			"byteLength": 288,
			"target": 34962,
			"byteStride": 12
		},
		{
			"buffer": 0,
			"byteOffset": 1416,
			"byteLength": 192,
			"target": 34962,
			"byteStride": 8
		},
		{
			"buffer": 0,
			"byteOffset": 1608,
			"byteLength": 72,
			"target": 34963
		},
		{
			"buffer": 0,
			"byteOffset": 1680,
			"byteLength": 2352,
			"target": 34962,
			"byteStride": 12
		},
		{
			"buffer": 0,
			"byteOffset": 4032,
			"byteLength": 2352,
			"target": 34962,
			"byteStride": 12
		},
		{
			"buffer": 0,
			"byteOffset": 6384,
			"byteLength": 1568,
			"target": 34962,
			"byteStride": 8
		},
		{
			"buffer": 0,
			"byteOffset": 7952,
			"byteLength": 768,
			"target": 34963
		},
		{
			"buffer": 0,
			"byteOffset": 8720,
			"byteLength": 148212,
			"target": 34962,
			"byteStride": 12
		},
		{
			"buffer": 0,
			"byteOffset": 156932,
			"byteLength": 148212,
			"target": 34962,
			"byteStride": 12
		},
		{
			"buffer": 0,
			"byteOffset": 305144,
			"byteLength": 148212,
			"target": 34962,
			"byteStride": 12
		},
		{
			"buffer": 0,
			"byteOffset": 453356,
			"byteLength": 98808,
			"target": 34962,
			"byteStride": 8
		},
		{
			"buffer": 0,
			"byteOffset": 552164,
			"byteLength": 167904,
			"target": 34962,
			"byteStride": 12
		},
		{
			"buffer": 0,
			"byteOffset": 720068,
			"byteLength": 167904,
			"target": 34962,
			"byteStride": 12
		},
		{
			"buffer": 0,
			"byteOffset": 887972,
			"byteLength": 111936,
			"target": 34962,
			"byteStride": 8
		}
	],
	"buffers": [
		{
			"byteLength": 999908,
			"uri": "data:application/octet-stream;base64,"
		}
	],
	"accessors": [
		{
			"bufferView": 0,
			"componentType": 5126,
			"count": 24,
			"max": [
				0.5,
				0.5,
				0.5
			],
			"min": [
				-0.5,
				-0.5,
				-0.5
			],
			"type": "VEC3"
		},
		{
			"bufferView": 1,
			"componentType": 5126,
			"count": 24,
			"max": [
				1,
				1,
				1
			],
			"min": [
				-1,
				-1,
				-1
			],
			"type": "VEC3"
		},
		{
			"bufferView": 2,
			"componentType": 5126,
			"count": 24,
			"max": [
				1,
				1
			],
			"min": [
				0,
				0
			],
			"type": "VEC2"
		},
		{
			"bufferView": 3,
			"componentType": 5123,
			"count": 36,
			"max": [
				23
			],
			"min": [
				0
			],
			"type": "SCALAR"
		},
		{
			"bufferView": 4,
			"componentType": 5126,
			"count": 24,
			"max": [
				0.5,
				0.5,
				0.5
			],
			"min": [
				-0.5,
				-0.5,
				-0.5
			],
			"type": "VEC3"
		},
		{
			"bufferView": 5,
			"componentType": 5126,
			"count": 24,
			"max": [
				1,
				1,
				1
			],
			"min": [
				-1,
				-1,
				-1
			],
			"type": "VEC3"
		},
		{
			"bufferView": 6,
			"componentType": 5126,
			"count": 24,
			"max": [
				1,
				1
			],
			"min": [
				0,
				0
			],
			"type": "VEC2"
		},
		{
			"bufferView": 7,
			"componentType": 5123,
			"count": 36,
			"max": [
				23
			],
			"min": [
				0
			],
			"type": "SCALAR"
		},
		{
			"bufferView": 8,
			"componentType": 5126,
			"count": 196,
			"max": [
				1,
				1,
				1
			],
			"min": [
				-1,
				-1,
				-1
			],
			"type": "VEC3"
		},
		{
			"bufferView": 9,
			"componentType": 5126,
			"count": 196,
			"max": [
				1,
				1,
				1
			],
			"min": [
				-1,
				-1,
				-1
			],
			"type": "VEC3"
		},
		{
			"bufferView": 10,
			"componentType": 5126,
			"count": 196,
			"max": [
				1,
				1
			],
			"min": [
				0,
				0
			],
			"type": "VEC2"
		},
		{
			"bufferView": 11,
			"componentType": 5123,
			"count": 384,
			"max": [
				195
			],
			"min": [
				0
			],
			"type": "SCALAR"
		},
		{
			"bufferView": 12,
			"componentType": 5126,
			"count": 12351,
			"max": [
				0.9526474475860596,
				0.9287844300270081,
				0.6350621581077576
			],
			"min": [
				-0.935711681842804,
				-1.2615396976470947,
				-0.4076204001903534
			],
			"type": "VEC3"
		},
		{
			"bufferView": 13,
			"componentType": 5126,
			"count": 12351,
			"max": [
				0.998760461807251,
				0.9993179440498352,
				0.9993295073509216
			],
			"min": [
				-0.9924257397651672,
				-0.9993833303451538,
				-0.999740719795227
			],
			"type": "VEC3"
		},
		{
			"bufferView": 14,
			"componentType": 5126,
			"count": 12351,
			"max": [
				1,
				1,
				1
			],
			"min": [
				1,
				1,
				1
			],
			"type": "VEC3"
		},
		{
			"bufferView": 15,
			"componentType": 5126,
			"count": 12351,
			"max": [
				1.0000439882278442,
				0.9966890215873718
			],
			"min": [
				0.005636999849230051,
				-0.002111000008881092
			],
			"type": "VEC2"
		},
		{
			"bufferView": 16,
			"componentType": 5126,
			"count": 13992,
			"max": [
				19.79568099975586,
				19.79537582397461,
				19.79499053955078
			],
			"min": [
				-19.795658111572266,
				-19.795372009277344,
				-19.796955108642578
			],
			"type": "VEC3"
		},
		{
			"bufferView": 17,
			"componentType": 5126,
			"count": 13992,
			"max": [
				1,
				1,
				1
			],
			"min": [
				-1,
				-1,
				-1
			],
			"type": "VEC3"
		},
		{
			"bufferView": 18,
			"componentType": 5126,
			"count": 13992,
			"max": [
				0.998199999332428,
				0.9947999715805054
			],
			"min": [
				0.007300000172108412,
				0.008500000461935997
			],
			"type": "VEC2"
		}
	],
	"materials": [
		{
			"pbrMetallicRoughness": {
				"metallicFactor": 0.08,
				"roughnessFactor": 0.49,
				"baseColorTexture": {
					"index": 0,
					"extensions": {
						"KHR_texture_transform": {
							"scale": [
								4,
								2
							]
						}
					}
				}
			},
			"name": "panel"
		},
		{
			"pbrMetallicRoughness": {
				"metallicFactor": 0.09,
				"roughnessFactor": 0.71,
				"baseColorTexture": {
					"index": 1,
					"extensions": {
						"KHR_texture_transform": {
							"scale": [
								20,
								20
							]
						}
					}
				}
			},
			"name": "wall"
		},
		{
			"pbrMetallicRoughness": {
				"metallicFactor": 0.09,
				"roughnessFactor": 0.55,
				"baseColorTexture": {
					"index": 2,
					"extensions": {
						"KHR_texture_transform": {
							"scale": [
								30,
								30
							]
						}
					}
				}
			},
			"name": "floor"
		},
		{
			"pbrMetallicRoughness": {
				"metallicFactor": "0.08",
				"roughnessFactor": 0.5
			},
			"name": "player"
		},
		{
			"pbrMetallicRoughness": {
				"metallicFactor": 0.12,
				"roughnessFactor": 0.29,
				"baseColorTexture": {
					"index": 3
				}
			},
			"normalTexture": {
				"index": 4,
				"scale": 1
			},
			"name": "gun"
		},
		{
			"pbrMetallicRoughness": {
				"metallicFactor": 0.12,
				"roughnessFactor": 0.52,
				"baseColorTexture": {
					"index": 5
				}
			},
			"emissiveFactor": [
				0.8980392156862745,
				0.6666666666666666,
				1
			],
			"emissiveTexture": {
				"index": 6
			},
			"name": "companion"
		}
	],
	"textures": [
		{
			"sampler": 0,
			"source": 0,
			"name": "panel"
		},
		{
			"sampler": 1,
			"source": 1,
			"name": "wall"
		},
		{
			"sampler": 2,
			"source": 2,
			"name": "floor"
		},
		{
			"sampler": 3,
			"source": 3,
			"name": "gun"
		},
		{
			"sampler": 4,
			"source": 4,
			"name": "normal"
		},
		{
			"sampler": 5,
			"source": 5,
			"name": "companion"
		},
		{
			"sampler": 6,
			"source": 6,
			"name": "emissive"
		}
	],
	"samplers": [
		{
			"magFilter": 9729,
			"minFilter": 9985,
			"wrapS": 10497,
			"wrapT": 10497
		},
		{
			"magFilter": 9729,
			"minFilter": 9987,
			"wrapS": 10497,
			"wrapT": 10497
		},
		{
			"magFilter": 9729,
			"minFilter": 9987,
			"wrapS": 10497,
			"wrapT": 10497
		},
		{
			"magFilter": 9729,
			"minFilter": 9987,
			"wrapS": 33071,
			"wrapT": 33071
		},
		{
			"magFilter": 9729,
			"minFilter": 9987,
			"wrapS": 33071,
			"wrapT": 33071
		},
		{
			"magFilter": 9729,
			"minFilter": 9987,
			"wrapS": 33071,
			"wrapT": 33071
		},
		{
			"magFilter": 9729,
			"minFilter": 9987,
			"wrapS": 33071,
			"wrapT": 33071
		}
	],
	"images": [
		{
			"mimeType": "image/jpeg",
			"uri": "data:image/jpeg;base64,"
		},
		{
			"mimeType": "image/jpeg",
			"uri": "data:image/jpeg;base64,"
		},
		{
			"mimeType": "image/png",
			"uri": "data:image/png;base64,"
		},
		{
			"mimeType": "image/jpeg",
			"uri": "data:image/jpeg;base64,"
		},
		{
			"mimeType": "image/jpeg",
			"uri": "data:image/jpeg;base64,"
		},
		{
			"mimeType": "image/jpeg",
			"uri": "data:image/jpeg;base64,"
		},
		{
			"mimeType": "image/png",
			"uri": "data:image/png;base64,"
		}
	],
	"meshes": [
		{
			"primitives": [
				{
					"mode": 4,
					"attributes": {
						"POSITION": 0,
						"NORMAL": 1,
						"TEXCOORD_0": 2
					},
					"indices": 3,
					"material": 0
				}
			]
		},
		{
			"primitives": [
				{
					"mode": 4,
					"attributes": {
						"POSITION": 4,
						"NORMAL": 5,
						"TEXCOORD_0": 6
					},
					"indices": 7,
					"material": 1
				}
			]
		},
		{
			"primitives": [
				{
					"mode": 4,
					"attributes": {
						"POSITION": 4,
						"NORMAL": 5,
						"TEXCOORD_0": 6
					},
					"indices": 7,
					"material": 2
				}
			]
		},
		{
			"primitives": [
				{
					"mode": 4,
					"attributes": {
						"POSITION": 8,
						"NORMAL": 9,
						"TEXCOORD_0": 10
					},
					"indices": 11,
					"material": 3
				}
			]
		},
		{
			"primitives": [
				{
					"mode": 4,
					"attributes": {
						"POSITION": 12,
						"NORMAL": 13,
						"COLOR_0": 14,
						"TEXCOORD_0": 15
					},
					"material": 4
				}
			]
		},
		{
			"primitives": [
				{
					"mode": 4,
					"attributes": {
						"POSITION": 16,
						"NORMAL": 17,
						"TEXCOORD_0": 18
					},
					"material": 5
				}
			]
		}
	],
	"cameras": [
		{
			"type": "perspective",
			"perspective": {
				"aspectRatio": 1.7777777777777777,
				"yfov": 1.0471975511965976,
				"zfar": 2000,
				"znear": 0.1
			},
			"name": "PerspectiveCamera"
		}
	],
	"extensions": {
		"KHR_lights_punctual": {
			"lights": [
				{
					"name": "point",
					"color": [
						0.39215686274509803,
						0.14901960784313725,
						0.43137254901960786
					],
					"intensity": 1,
					"type": "point",
					"range": 5
				},
				{
					"name": "point",
					"color": [
						0.39215686274509803,
						0.14901960784313725,
						0.43137254901960786
					],
					"intensity": 1,
					"type": "point",
					"range": 5
				},
				{
					"name": "directional",
					"color": [
						0.25882352941176473,
						0.25098039215686274,
						0.22745098039215686
					],
					"intensity": 1,
					"type": "directional"
				}
			]
		}
	},
	"extensionsUsed": [
		"KHR_texture_transform",
		"KHR_lights_punctual"
	]
}